<?xml version="1.0" encoding="UTF-8"?>
<svg width="1010px" height="982px" viewBox="0 0 1010 982" version="1.1" xmlns="http://www.w3.org/2000/svg" xmlns:xlink="http://www.w3.org/1999/xlink">
    <!-- Generator: Sketch 46.2 (44496) - http://www.bohemiancoding.com/sketch -->
    <title>Group</title>
    <desc>Created with Sketch.</desc>
    <defs>
        <path d="M507.875419,16.0000671 C507.91204,16.0001119 507.948657,16.000179 507.98527,16.0002685 C601.153853,16.190294 645.443848,117.236624 645.443848,241.856205 C645.443848,366.593143 558.396974,474.683281 507.721924,474.683281 C457.046874,474.683281 370,366.593143 370,241.856205 C370,117.119268 414.373451,16 507.721924,16 C507.729852,16 507.73778,16.0000007 507.745707,16.0000022 C507.752319,16.0000007 507.758932,16 507.765545,16 C507.802174,16 507.838799,16.0000224 507.875419,16.0000671 C507.8322,16.0000398 507.788959,16.0000101 507.745707,16.0000022 C442.869464,16.0143135 390.280207,86.2305418 390.280207,172.844587 C390.280207,259.467461 442.880185,329.689174 507.765545,329.689174 C572.650905,329.689174 625.250883,259.467461 625.250883,172.844587 C625.250883,86.3195133 572.769612,16.1585856 507.98527,16.0002685 C507.948665,16.0001938 507.912051,16.0001347 507.87543,16.0000912 Z" id="path-1"></path>
        <filter x="-2.7%" y="-1.2%" width="105.4%" height="103.3%" filterUnits="objectBoundingBox" id="filter-2">
            <feMorphology radius="0.5" operator="dilate" in="SourceAlpha" result="shadowSpreadOuter1"></feMorphology>
            <feOffset dx="0" dy="2" in="shadowSpreadOuter1" result="shadowOffsetOuter1"></feOffset>
            <feGaussianBlur stdDeviation="2" in="shadowOffsetOuter1" result="shadowBlurOuter1"></feGaussianBlur>
            <feComposite in="shadowBlurOuter1" in2="SourceAlpha" operator="out" result="shadowBlurOuter1"></feComposite>
            <feColorMatrix values="0 0 0 0 0   0 0 0 0 0   0 0 0 0 0  0 0 0 0.5 0" type="matrix" in="shadowBlurOuter1"></feColorMatrix>
        </filter>
        <path d="M57.8133318,340.745623 C57.824691,340.710919 57.8360703,340.676226 57.8474697,340.641544 C86.8194484,252.374289 196.914069,241.611381 315.813557,280.12095 C434.825015,318.666783 511.054805,434.590927 495.395353,482.632048 C479.735902,530.67317 349.708185,579.793934 230.696727,541.248101 C111.685269,502.702267 28.9195707,429.387635 57.765835,340.891119 C57.7682849,340.883603 57.7707354,340.876088 57.7731865,340.868573 C57.7752285,340.862304 57.7772712,340.856035 57.7793147,340.849766 C57.7906336,340.815041 57.8019726,340.780326 57.8133318,340.745623 C57.7999501,340.786588 57.7865596,340.827572 57.7731865,340.868573 C37.7389792,402.377178 88.4812779,473.93102 171.119701,500.696232 C253.766546,527.464172 337.01934,499.297877 357.070019,437.785051 C377.120698,376.272226 326.376478,304.706525 243.729633,277.938585 C161.176098,251.200867 78.0179826,279.273409 57.8474697,340.641544 C57.8360867,340.676224 57.8247161,340.710916 57.8133581,340.74562 Z" id="path-3"></path>
        <filter x="-1.7%" y="-1.9%" width="103.4%" height="105.1%" filterUnits="objectBoundingBox" id="filter-4">
            <feMorphology radius="0.5" operator="dilate" in="SourceAlpha" result="shadowSpreadOuter1"></feMorphology>
            <feOffset dx="0" dy="2" in="shadowSpreadOuter1" result="shadowOffsetOuter1"></feOffset>
            <feGaussianBlur stdDeviation="2" in="shadowOffsetOuter1" result="shadowBlurOuter1"></feGaussianBlur>
            <feComposite in="shadowBlurOuter1" in2="SourceAlpha" operator="out" result="shadowBlurOuter1"></feComposite>
            <feColorMatrix values="0 0 0 0 0   0 0 0 0 0   0 0 0 0 0  0 0 0 0.5 0" type="matrix" in="shadowBlurOuter1"></feColorMatrix>
        </filter>
        <path d="M224.549308,863.960438 C224.520088,863.938433 224.490885,863.916413 224.461699,863.894378 C150.168686,807.851197 175.802898,700.582638 251.040801,601.057015 C326.349557,501.437667 461.126689,467.332078 501.597583,497.731816 C542.068477,528.131554 546.328795,666.67521 471.020039,766.294559 C395.711283,865.913907 299.223259,920.051907 224.671854,864.052573 C224.665523,864.047817 224.659192,864.04306 224.652862,864.038303 C224.64758,864.034338 224.642298,864.030371 224.637017,864.026404 C224.607764,864.004431 224.578528,863.982442 224.549308,863.960438 C224.583808,863.986387 224.618324,864.012351 224.652862,864.038303 C276.473974,902.945845 360.866011,878.416733 413.158428,809.243681 C465.456175,740.063578 465.843666,652.427531 414.023913,613.503091 C362.204161,574.578651 277.80025,599.105711 225.502503,668.285814 C173.263801,737.387811 172.818205,824.904101 224.461699,863.894378 C224.490888,863.916397 224.520093,863.938408 224.549314,863.960412 Z" id="path-5"></path>
        <filter x="-2.1%" y="-1.4%" width="104.3%" height="103.8%" filterUnits="objectBoundingBox" id="filter-6">
            <feMorphology radius="0.5" operator="dilate" in="SourceAlpha" result="shadowSpreadOuter1"></feMorphology>
            <feOffset dx="0" dy="2" in="shadowSpreadOuter1" result="shadowOffsetOuter1"></feOffset>
            <feGaussianBlur stdDeviation="2" in="shadowOffsetOuter1" result="shadowBlurOuter1"></feGaussianBlur>
            <feComposite in="shadowBlurOuter1" in2="SourceAlpha" operator="out" result="shadowBlurOuter1"></feComposite>
            <feColorMatrix values="0 0 0 0 0   0 0 0 0 0   0 0 0 0 0  0 0 0 0.5 0" type="matrix" in="shadowBlurOuter1"></feColorMatrix>
        </filter>
        <path d="M955.885313,348.468488 C955.895977,348.50341 955.906619,348.538335 955.917237,348.573263 C982.974791,437.442208 898.98366,509.204941 779.428046,545.64018 C659.759845,582.109731 530.61195,530.73439 515.795999,482.428161 C500.980049,434.121933 579.227857,319.541595 698.896059,283.072044 C818.564261,246.602493 928.548048,259.337281 955.8405,348.322148 C955.842818,348.329706 955.845135,348.337263 955.847451,348.34482 C955.849386,348.351123 955.85132,348.357427 955.853253,348.36373 C955.863963,348.398647 955.874649,348.433566 955.885313,348.468488 C955.872703,348.427281 955.860089,348.386052 955.847451,348.34482 C936.865744,286.505422 854.12717,256.903706 771.032721,282.227202 C687.929803,307.553279 635.940322,378.225296 654.910966,440.077569 C673.881609,501.929842 756.62858,531.540175 839.731498,506.214097 C922.740591,480.916614 974.706462,410.375527 955.917237,348.573263 C955.906606,348.538347 955.895958,348.503428 955.885293,348.468506 Z" id="path-7"></path>
        <filter x="-1.7%" y="-1.9%" width="103.4%" height="105.1%" filterUnits="objectBoundingBox" id="filter-8">
            <feMorphology radius="0.5" operator="dilate" in="SourceAlpha" result="shadowSpreadOuter1"></feMorphology>
            <feOffset dx="0" dy="2" in="shadowSpreadOuter1" result="shadowOffsetOuter1"></feOffset>
            <feGaussianBlur stdDeviation="2" in="shadowOffsetOuter1" result="shadowBlurOuter1"></feGaussianBlur>
            <feComposite in="shadowBlurOuter1" in2="SourceAlpha" operator="out" result="shadowBlurOuter1"></feComposite>
            <feColorMatrix values="0 0 0 0 0   0 0 0 0 0   0 0 0 0 0  0 0 0 0.5 0" type="matrix" in="shadowBlurOuter1"></feColorMatrix>
        </filter>
        <path d="M776.983481,876.041872 C776.953096,876.062248 776.922701,876.082603 776.892297,876.102937 C699.545441,927.878442 606.142186,868.794896 536.232829,765.480581 C466.257637,662.068973 477.78613,523.937443 519.797651,495.690694 C561.809171,467.443945 694.610935,508.533986 764.586128,611.945594 C834.56132,715.357203 854.500163,823.923053 777.110772,875.956368 C777.1042,875.960787 777.097627,875.965206 777.091054,875.969623 C777.085573,875.97331 777.080091,875.976997 777.074609,875.980683 C777.044242,876.0011 777.013866,876.021497 776.983481,876.041872 C777.019327,876.017804 777.055192,875.993726 777.091054,875.969623 C830.867869,839.795131 835.076289,752.269495 786.487358,680.463197 C737.893475,608.64958 654.892991,579.752862 601.100589,615.920571 C547.308188,652.088281 543.093956,739.624441 591.68784,811.438058 C640.226859,883.170595 723.094831,912.083087 776.892297,876.102937 C776.922687,876.082595 776.953074,876.062235 776.983458,876.041859 Z" id="path-9"></path>
        <filter x="-2.2%" y="-1.3%" width="104.4%" height="103.7%" filterUnits="objectBoundingBox" id="filter-10">
            <feMorphology radius="0.5" operator="dilate" in="SourceAlpha" result="shadowSpreadOuter1"></feMorphology>
            <feOffset dx="0" dy="2" in="shadowSpreadOuter1" result="shadowOffsetOuter1"></feOffset>
            <feGaussianBlur stdDeviation="2" in="shadowOffsetOuter1" result="shadowBlurOuter1"></feGaussianBlur>
            <feComposite in="shadowBlurOuter1" in2="SourceAlpha" operator="out" result="shadowBlurOuter1"></feComposite>
            <feColorMatrix values="0 0 0 0 0   0 0 0 0 0   0 0 0 0 0  0 0 0 0.5 0" type="matrix" in="shadowBlurOuter1"></feColorMatrix>
        </filter>
    </defs>
    <g id="Page-1" stroke="none" stroke-width="1" fill="none" fill-rule="evenodd">
        <g id="Group">
            <path d="M505.5,857 C298.117076,857 130,693.360076 130,491.5 C130,289.639924 298.117076,126 505.5,126 C712.882924,126 881,289.639924 881,491.5 C881,693.360076 712.882924,857 505.5,857 Z M506.5,744 C651.474747,744 769,629.832611 769,489 C769,348.167389 651.474747,234 506.5,234 C361.525253,234 244,348.167389 244,489 C244,629.832611 361.525253,744 506.5,744 Z" id="Combined-Shape" fill="#C4C4C7"></path>
            <ellipse id="Oval" fill="#DB8B23" cx="505" cy="492.5" rx="193" ry="187.5"></ellipse>
            <g id="Combined-Shape">
                <use fill="black" fill-opacity="1" filter="url(#filter-2)" xlink:href="#path-1"></use>
                <use stroke="#979797" stroke-width="1" fill="#B6B5B5" fill-rule="evenodd" xlink:href="#path-1"></use>
            </g>
            <g id="Combined-Shape">
                <use fill="black" fill-opacity="1" filter="url(#filter-4)" xlink:href="#path-3"></use>
                <use stroke="#979797" stroke-width="1" fill="#D8D8D8" fill-rule="evenodd" xlink:href="#path-3"></use>
            </g>
            <g id="Combined-Shape">
                <use fill="black" fill-opacity="1" filter="url(#filter-6)" xlink:href="#path-5"></use>
                <use stroke="#979797" stroke-width="1" fill="#A5A5A5" fill-rule="evenodd" xlink:href="#path-5"></use>
            </g>
            <g id="Combined-Shape">
                <use fill="black" fill-opacity="1" filter="url(#filter-8)" xlink:href="#path-7"></use>
                <use stroke="#979797" stroke-width="1" fill="#ABA7A7" fill-rule="evenodd" xlink:href="#path-7"></use>
            </g>
            <g id="Combined-Shape">
                <use fill="black" fill-opacity="1" filter="url(#filter-10)" xlink:href="#path-9"></use>
                <use stroke="#979797" stroke-width="1" fill="#6A6A6A" fill-rule="evenodd" xlink:href="#path-9"></use>
            </g>
            <path d="M505,982 C226.096201,982 0,762.171812 0,491 C0,219.828188 226.096201,0 505,0 C783.903799,0 1010,219.828188 1010,491 C1010,762.171812 783.903799,982 505,982 Z M505.5,857 C712.882924,857 881,693.360076 881,491.5 C881,289.639924 712.882924,126 505.5,126 C298.117076,126 130,289.639924 130,491.5 C130,693.360076 298.117076,857 505.5,857 Z" id="Combined-Shape" fill="#2F2F2F"></path>
            <path d="" id="Combined-Shape" fill="#0A0A0A"></path>
            <path d="M505,950 C244.321598,950 33,744.4987 33,491 C33,237.5013 244.321598,32 505,32 C765.678402,32 977,237.5013 977,491 C977,744.4987 765.678402,950 505,950 Z M505.5,857 C712.882924,857 881,693.360076 881,491.5 C881,289.639924 712.882924,126 505.5,126 C298.117076,126 130,289.639924 130,491.5 C130,693.360076 298.117076,857 505.5,857 Z" id="Combined-Shape" fill="#383838"></path>
            <path d="M505,950 C244.321598,950 33,744.4987 33,491 C33,237.5013 244.321598,32 505,32 C765.678402,32 977,237.5013 977,491 C977,744.4987 765.678402,950 505,950 Z M505.5,857 C712.882924,857 881,693.360076 881,491.5 C881,289.639924 712.882924,126 505.5,126 C298.117076,126 130,289.639924 130,491.5 C130,693.360076 298.117076,857 505.5,857 Z" id="Combined-Shape" fill="#383838"></path>
            <ellipse id="Oval" fill="#D6D6DB" cx="506" cy="491.5" rx="128" ry="124.5"></ellipse>
            <circle id="Oval-3" fill="#414141" cx="503.5" cy="410.5" r="24.5"></circle>
            <circle id="Oval-3" fill="#828081" cx="503" cy="412" r="22"></circle>
            <circle id="Path" fill="#FFFFFF" cx="503" cy="412" r="13"></circle>
            <circle id="Oval-3" fill="#414141" transform="translate(585.766389, 470.270030) rotate(72.000000) translate(-585.766389, -470.270030) " cx="585.766389" cy="470.27003" r="24.5"></circle>
            <circle id="Oval-3" fill="#828081" transform="translate(584.185295, 470.258027) rotate(72.000000) translate(-584.185295, -470.258027) " cx="584.185295" cy="470.258027" r="22"></circle>
            <circle id="Path" fill="#FFFFFF" transform="translate(584.185295, 470.258027) rotate(72.000000) translate(-584.185295, -470.258027) " cx="584.185295" cy="470.258027" r="13"></circle>
            <circle id="Oval-3" fill="#414141" transform="translate(552.141529, 556.907147) rotate(137.000000) translate(-552.141529, -556.907147) " cx="552.141529" cy="556.907147" r="24.5"></circle>
            <circle id="Oval-3" fill="#828081" transform="translate(551.093745, 556.093745) rotate(137.000000) translate(-551.093745, -556.093745) " cx="551.093745" cy="556.093745" r="22"></circle>
            <circle id="Path" fill="#FFFFFF" transform="translate(551.650683, 556.416301) rotate(137.000000) translate(-551.650683, -556.416301) " cx="551.650683" cy="556.416301" r="13"></circle>
            <circle id="Oval-3" fill="#414141" transform="translate(455.534865, 564.056429) rotate(216.000000) translate(-455.534865, -564.056429) " cx="455.534865" cy="564.056429" r="24.5"></circle>
            <circle id="Oval-3" fill="#828081" transform="translate(456.821052, 563.136796) rotate(216.000000) translate(-456.821052, -563.136796) " cx="456.821052" cy="563.136796" r="22"></circle>
            <circle id="Path" fill="#FFFFFF" transform="translate(456.821052, 563.136796) rotate(216.000000) translate(-456.821052, -563.136796) " cx="456.821052" cy="563.136796" r="13"></circle>
            <circle id="Oval-3" fill="#414141" transform="translate(421.637326, 468.237697) rotate(-73.000000) translate(-421.637326, -468.237697) " cx="421.637326" cy="468.237697" r="24.5"></circle>
            <circle id="Oval-3" fill="#828081" transform="translate(422.925597, 469.154407) rotate(-73.000000) translate(-422.925597, -469.154407) " cx="422.925597" cy="469.154407" r="22"></circle>
            <circle id="Path" fill="#FFFFFF" transform="translate(422.925597, 469.154407) rotate(-73.000000) translate(-422.925597, -469.154407) " cx="422.925597" cy="469.154407" r="13"></circle>
            <path d="M506.5,800 C328.940453,800 185,660.088984 185,487.5 C185,314.911016 328.940453,175 506.5,175 C684.059547,175 828,314.911016 828,487.5 C828,660.088984 684.059547,800 506.5,800 Z M506,740 C649.04175,740 765,627.175757 765,488 C765,348.824243 649.04175,236 506,236 C362.95825,236 247,348.824243 247,488 C247,627.175757 362.95825,740 506,740 Z" id="Combined-Shape" fill="#F3F2F5"></path>
            <path d="M529.760841,497.314629 C528.980282,498.362199 528.200581,499.412511 527.421738,500.465565 L515.714198,491.221161 L508.572721,495.984832 L511.587117,506.705305 L526.073358,507.285869 L529.760849,497.314618 Z M540.446999,483.213816 C662.17523,518.863968 762.340467,538.177777 840.94271,541.15524 C872.122452,588.953975 857.832129,640.44747 808.211188,663.383513 C736.020922,599.505436 645.385701,548.726815 536.305526,511.04765 C539.950029,638.670384 552.551481,740.496919 574.109852,816.527246 C538.285624,860.951563 484.896447,863.273024 447.749261,823.168332 C486.04437,735.113429 506.321394,633.668358 508.580334,518.83312 C389.623283,561.426885 297.564459,604.559637 232.403861,648.231377 C179.083529,627.888381 160.377526,577.829627 187.040243,530.107522 C282.593284,539.315369 385.309341,527.260777 495.188411,493.943746 C418.643799,395.150594 349.777218,321.705228 288.588717,273.607632 C291.459168,216.610651 333.287399,183.351179 386.913051,193.961988 C407.388975,286.355267 449.668671,378.983712 513.752138,471.847323 C582.580108,370.257316 630.236741,283.410318 656.722037,211.306328 C711.816405,196.423253 756.373677,225.926523 762.853436,280.206469 C682.372596,327.605285 608.237111,395.274399 540.446982,483.213811 Z" id="Combined-Shape" fill="#B1AEAE"></path>
            <path d="M505.5,857 C298.117076,857 130,693.360076 130,491.5 C130,289.639924 298.117076,126 505.5,126 C712.882924,126 881,289.639924 881,491.5 C881,693.360076 712.882924,857 505.5,857 Z M505,790 C673.999133,790 811,656.804713 811,492.5 C811,328.195287 673.999133,195 505,195 C336.000867,195 199,328.195287 199,492.5 C199,656.804713 336.000867,790 505,790 Z" id="Combined-Shape" fill="#C4C4C7"></path>
            <path d="M505,850 C301.206927,850 136,689.270225 136,491 C136,292.729775 301.206927,132 505,132 C708.793073,132 874,292.729775 874,491 C874,689.270225 708.793073,850 505,850 Z M504.5,784 C670.461567,784 805,653.267147 805,492 C805,330.732853 670.461567,200 504.5,200 C338.538433,200 204,330.732853 204,492 C204,653.267147 338.538433,784 504.5,784 Z" id="Combined-Shape" fill="#C4C4C7"></path>
            <path d="M516.760841,493.314629 C515.980282,494.362199 515.200581,495.412511 514.421738,496.465565 L502.714198,487.221161 L495.572721,491.984832 L498.587117,502.705305 L513.073358,503.285869 L516.760849,493.314618 Z M527.446999,479.213816 C649.17523,514.863968 749.340467,534.177777 827.94271,537.15524 C859.122452,584.953975 844.832129,636.44747 795.211188,659.383513 C723.020922,595.505436 632.385701,544.726815 523.305526,507.04765 C526.950029,634.670384 539.551481,736.496919 561.109852,812.527246 C525.285624,856.951563 471.896447,859.273024 434.749261,819.168332 C473.04437,731.113429 493.321394,629.668358 495.580334,514.83312 C376.623283,557.426885 284.564459,600.559637 219.403861,644.231377 C166.083529,623.888381 147.377526,573.829627 174.040243,526.107522 C269.593284,535.315369 372.309341,523.260777 482.188411,489.943746 C405.643799,391.150594 336.777218,317.705228 275.588717,269.607632 C278.459168,212.610651 320.287399,179.351179 373.913051,189.961988 C394.388975,282.355267 436.668671,374.983712 500.752138,467.847323 C569.580108,366.257316 617.236741,279.410318 643.722037,207.306328 C698.816405,192.423253 743.373677,221.926523 749.853436,276.206469 C669.372596,323.605285 595.237111,391.274399 527.446982,479.213811 Z" id="Combined-Shape" fill="#E4E3E3"></path>
            <circle id="Oval-2" stroke="#A1A1A4" fill="#D8D8D8" cx="502.5" cy="494.5" r="40.5"></circle>
        </g>
    </g>
</svg>